<svg width="48" height="48" viewBox="0 0 48 48" fill="none" xmlns="http://www.w3.org/2000/svg">
<path d="M21.1765 2.82352H19.7648V0H16.9412V2.82352H15.5294V7.05882H21.1765V2.82352Z" fill="#34C759"/>
<path d="M32.4707 2.82352H31.0589V0H28.2354V2.82352H26.8236V7.05882H32.4707V2.82352Z" fill="#34C759"/>
<path d="M15.5294 45.1764H16.9412V47.9999H19.7648V45.1764H21.1765V40.9411H15.5294V45.1764Z" fill="#34C759"/>
<path d="M26.8236 45.1764H28.2354V47.9999H31.0589V45.1764H32.4707V40.9411H26.8236V45.1764Z" fill="#34C759"/>
<path d="M45.1764 16.9412V15.5294H40.9411V21.1765H45.1764V19.7647H47.9999V16.9412H45.1764Z" fill="#34C759"/>
<path d="M45.1764 26.8234H40.9411V32.4705H45.1764V31.0587H47.9999V28.2352H45.1764V26.8234Z" fill="#34C759"/>
<path d="M2.82352 16.9412H0V19.7647H2.82352V21.1765H7.05882V15.5294H2.82352V16.9412Z" fill="#34C759"/>
<path d="M2.82352 28.2352H0V31.0587H2.82352V32.4705H7.05882V26.8234H2.82352V28.2352Z" fill="#34C759"/>
<path d="M28.3137 28.4243L23.9999 25.6744L19.6861 28.4243L23.9999 30.851L28.3137 28.4243Z" fill="#34C759"/>
<path d="M29.6469 20.5638L25.4117 18.0226V23.2256L29.6469 25.9256V20.5638Z" fill="#34C759"/>
<path d="M22.5883 18.0226L18.3531 20.5638V25.9256L22.5883 23.2256V18.0226Z" fill="#34C759"/>
<path d="M9.88228 38.1175H38.1175V9.88226H9.88228V38.1175ZM15.5293 18.9653L23.9999 13.883L32.4705 18.9653V29.3255L23.9999 34.0903L15.5293 29.3255V18.9653Z" fill="#34C759"/>
</svg>
